<svg width="19" height="14" viewBox="0 0 19 14" fill="none" xmlns="http://www.w3.org/2000/svg">
<path d="M18.813 3.63082C18.813 3.63082 18.6297 2.33677 18.0651 1.76856C17.3503 1.02072 16.5511 1.01706 16.1846 0.973065C13.5598 0.78244 9.61899 0.78244 9.61899 0.78244H9.61166C9.61166 0.78244 5.67086 0.78244 3.0461 0.973065C2.67951 1.01706 1.88035 1.02072 1.16551 1.76856C0.600965 2.33677 0.421338 3.63082 0.421338 3.63082C0.421338 3.63082 0.230713 5.15215 0.230713 6.66982V8.09218C0.230713 9.60984 0.417672 11.1312 0.417672 11.1312C0.417672 11.1312 0.600965 12.4252 1.16184 12.9934C1.87669 13.7413 2.81515 13.7156 3.23306 13.7963C4.73606 13.9392 9.61533 13.9832 9.61533 13.9832C9.61533 13.9832 13.5598 13.9759 16.1846 13.7889C16.5511 13.7449 17.3503 13.7413 18.0651 12.9934C18.6297 12.4252 18.813 11.1312 18.813 11.1312C18.813 11.1312 18.9999 9.61351 18.9999 8.09218V6.66982C18.9999 5.15215 18.813 3.63082 18.813 3.63082ZM7.67609 9.8188V4.54362L12.746 7.19037L7.67609 9.8188Z" fill="#99A2A5"/>
</svg>
