<svg width="20" height="16" viewBox="0 0 20 16" fill="none" xmlns="http://www.w3.org/2000/svg">
<path d="M6.64826 16.0096C13.7292 16.0096 17.6033 10.1417 17.6033 5.05455C17.6033 4.88959 17.5997 4.72096 17.5923 4.556C18.346 4.01098 18.9963 3.33591 19.5129 2.5625C18.811 2.87477 18.0658 3.07872 17.3027 3.16737C18.1062 2.68576 18.7078 1.92917 18.996 1.03786C18.2401 1.48582 17.4135 1.80181 16.5516 1.97229C15.9708 1.35522 15.203 0.946638 14.3667 0.809728C13.5305 0.672818 12.6724 0.815202 11.9252 1.21487C11.178 1.61453 10.5833 2.24921 10.2329 3.02079C9.88262 3.79237 9.79623 4.65786 9.98713 5.48346C8.45663 5.40666 6.95935 5.00907 5.59236 4.31648C4.22537 3.62389 3.01918 2.65176 2.052 1.4631C1.56043 2.31063 1.41 3.31354 1.6313 4.26799C1.8526 5.22244 2.42902 6.05682 3.24341 6.60155C2.63202 6.58214 2.03402 6.41753 1.49882 6.12132V6.16898C1.49827 7.05839 1.80575 7.92056 2.369 8.60891C2.93224 9.29725 3.71648 9.76931 4.58841 9.94482C4.02205 10.0998 3.42764 10.1224 2.85116 10.0108C3.0972 10.7757 3.57591 11.4447 4.22047 11.9245C4.86504 12.4042 5.6433 12.6707 6.44664 12.6869C5.0828 13.7582 3.39807 14.3393 1.66378 14.3365C1.35622 14.3361 1.04896 14.3172 0.743652 14.2801C2.5055 15.4104 4.555 16.0107 6.64826 16.0096Z" fill="#99A2A5"/>
</svg>
