<svg width="55" height="8" viewBox="0 0 55 8" fill="none" xmlns="http://www.w3.org/2000/svg">
<path d="M2.56897 0.631348C3.21112 0.631348 3.74273 0.848811 4.16908 1.27843C4.60595 1.70805 4.81649 2.24375 4.81649 2.88023C4.81649 3.5167 4.60595 4.04179 4.16908 4.48202C3.74273 4.91164 3.21112 5.1291 2.56897 5.1291H1.18466V7.47345H0.0687866V0.636653H2.56897V0.631348ZM2.56897 4.06831C3.22691 4.06831 3.70062 3.56974 3.70062 2.87492C3.70062 2.1801 3.22691 1.68153 2.56897 1.68153H1.18466V4.06301H2.56897V4.06831Z" fill="#103559"/>
<path d="M6.49587 5.51629C6.65724 6.20137 7.28604 6.57816 8.13742 6.57816C8.7217 6.57816 9.1613 6.38732 9.46179 6.02031L10.3744 6.49008C9.87357 7.1458 9.12235 7.47366 8.13185 7.47366C7.30273 7.47366 6.62385 7.24856 6.11191 6.80815C5.59997 6.35796 5.34399 5.79032 5.34399 5.10524C5.34399 4.42016 5.59997 3.87209 6.10078 3.4219C6.60159 2.96192 7.25821 2.73682 8.04838 2.73682C8.79404 2.73682 9.41171 2.9717 9.89026 3.43168C10.3744 3.89167 10.6192 4.4593 10.6192 5.11502C10.6192 5.21289 10.6081 5.34991 10.5803 5.52118H6.50143L6.49587 5.51629ZM9.50074 4.72355C9.34493 3.99443 8.76065 3.61274 8.03726 3.61274C7.21926 3.61274 6.64611 4.03847 6.4903 4.72355H9.50074Z" fill="#103559"/>
<path d="M13.7844 3.54591H12.5736V5.89686C12.5736 6.5245 12.9825 6.51386 13.7844 6.47663V7.42871C12.17 7.62551 11.5168 7.18404 11.5168 5.90218V3.55123H10.6193V2.52999H11.5168V1.47153L12.5736 1.15771V2.52999H13.7844V3.55123V3.54591Z" fill="#103559"/>
<path d="M16.3866 4.68152C17.1 4.83337 18.0243 5.12238 18.0042 6.08738C18.0042 6.51845 17.8284 6.86135 17.4868 7.10627C17.1452 7.3512 16.7182 7.47366 16.2008 7.47366C15.2865 7.47366 14.6083 7.07688 14.3119 6.42048L15.1709 5.93553C15.3267 6.3666 15.6683 6.58703 16.1957 6.58703C16.7232 6.58703 16.9844 6.41558 16.9844 6.08248C16.9844 5.79347 16.5976 5.62203 16.1053 5.50447C15.4121 5.33302 14.4777 5.0636 14.4978 4.11329C14.4978 3.69692 14.6535 3.36382 14.98 3.114C15.3015 2.85928 15.7135 2.73682 16.1907 2.73682C16.9593 2.73682 17.5772 3.08951 17.9038 3.67733L17.0598 4.13779C16.9041 3.79489 16.6077 3.62344 16.1907 3.62344C15.8139 3.62344 15.5176 3.78509 15.5176 4.1035C15.5176 4.4023 15.9044 4.55416 16.3866 4.69131V4.68152Z" fill="#103559"/>
<path d="M24.3348 1.63743C23.5037 1.56976 23.0995 1.88733 23.0995 2.58494V2.67865H24.3348V3.67822H23.0995V7.47345H21.9667V3.67822H21.1697V2.67865H21.9667V2.58494C21.9667 1.27301 22.7864 0.554571 24.3348 0.637868V1.63743Z" fill="#103559"/>
<path d="M25.633 6.78858C25.1229 6.32859 24.8624 5.77074 24.8624 5.10524C24.8624 4.43973 25.1229 3.88188 25.633 3.4219C26.1432 2.96192 26.7727 2.73682 27.5 2.73682C28.2272 2.73682 28.8568 2.96192 29.3669 3.4219C29.8771 3.88188 30.1376 4.43973 30.1376 5.10524C30.1376 5.77074 29.8771 6.32859 29.3669 6.78858C28.8568 7.24856 28.2381 7.47366 27.5 7.47366C26.7619 7.47366 26.1432 7.24856 25.633 6.78858ZM27.5 6.52923C27.9396 6.52923 28.3086 6.39221 28.6071 6.12307C28.9056 5.85393 29.0576 5.51139 29.0576 5.10524C29.0576 4.69908 28.9056 4.35654 28.6071 4.0874C28.3086 3.81826 27.9396 3.68125 27.5 3.68125C27.0604 3.68125 26.6913 3.81826 26.3928 4.0874C26.0943 4.35654 25.9424 4.69908 25.9424 5.10524C25.9424 5.51139 26.0943 5.85393 26.3928 6.12307C26.6913 6.39221 27.0604 6.52923 27.5 6.52923Z" fill="#103559"/>
<path d="M31.7518 3.60128C32.0249 3.02497 32.5491 2.73682 33.3027 2.73682V3.82371C32.8931 3.79338 32.5273 3.88943 32.216 4.10175C31.9047 4.30902 31.7518 4.65279 31.7518 5.12799V7.47366H30.6651V2.8177H31.7518V3.60128Z" fill="#103559"/>
<path d="M41.2156 5.52008C41.2156 6.07743 41.0285 6.54454 40.6493 6.9161C40.2701 7.28767 39.81 7.47345 39.2639 7.47345H36.4679V0.631348H39.0566C39.5875 0.631348 40.0426 0.817132 40.4066 1.17808C40.7808 1.53903 40.9628 1.99022 40.9628 2.52633C40.9628 3.12084 40.7403 3.58264 40.3004 3.92235C40.8667 4.23553 41.2105 4.80349 41.2105 5.51477L41.2156 5.52008ZM37.5398 1.68765V3.48709H39.0566C39.5319 3.48709 39.896 3.09429 39.896 2.59003C39.896 2.08576 39.5319 1.69296 39.0566 1.69296H37.5398V1.68765ZM39.2639 6.41714C39.7594 6.41714 40.1488 5.99781 40.1488 5.46169C40.1488 4.92558 39.7594 4.50624 39.2639 4.50624H37.5398V6.42245H39.2639V6.41714Z" fill="#103559"/>
<path d="M43.4213 5.51629C43.5825 6.20137 44.2106 6.57816 45.0611 6.57816C45.6448 6.57816 46.0839 6.38732 46.3841 6.02031L47.2957 6.49008C46.7954 7.1458 46.045 7.47366 45.0556 7.47366C44.2273 7.47366 43.5491 7.24856 43.0377 6.80815C42.5263 6.35796 42.2706 5.79032 42.2706 5.10524C42.2706 4.42016 42.5263 3.87209 43.0266 3.4219C43.5269 2.96192 44.1828 2.73682 44.9722 2.73682C45.717 2.73682 46.3341 2.9717 46.8177 3.43168C47.3013 3.89167 47.5459 4.4593 47.5459 5.11502C47.5459 5.21289 47.5347 5.34991 47.507 5.52118H43.4324L43.4213 5.51629ZM46.423 4.72355C46.2674 3.99443 45.6837 3.61274 44.9611 3.61274C44.1439 3.61274 43.5714 4.03847 43.4157 4.72355H46.4286H46.423Z" fill="#103559"/>
<path d="M49.6206 4.68152C50.3339 4.83337 51.2583 5.12238 51.2382 6.08738C51.2382 6.51845 51.0624 6.86135 50.7207 7.10627C50.3791 7.3512 49.9521 7.47366 49.4347 7.47366C48.5204 7.47366 47.8422 7.07688 47.5458 6.42048L48.4049 5.93553C48.5606 6.3666 48.9022 6.58703 49.4297 6.58703C49.9572 6.58703 50.2184 6.41558 50.2184 6.08248C50.2184 5.79347 49.8316 5.62203 49.3393 5.50447C48.646 5.33302 47.7116 5.0636 47.7317 4.11329C47.7317 3.69692 47.8874 3.36382 48.214 3.114C48.5355 2.85928 48.9474 2.73682 49.4247 2.73682C50.1933 2.73682 50.8112 3.08951 51.1377 3.67733L50.2937 4.13779C50.138 3.79489 49.8416 3.62344 49.4247 3.62344C49.0479 3.62344 48.7515 3.78509 48.7515 4.1035C48.7515 4.4023 49.1383 4.55416 49.6206 4.69131V4.68152Z" fill="#103559"/>
<path d="M54.9312 3.54591H53.7224V5.89686C53.7224 6.5245 54.1306 6.51386 54.9312 6.47663V7.42871C53.3195 7.62551 52.6673 7.18404 52.6673 5.90218V3.55123H51.7661V2.52999H52.6673V1.47153L53.7224 1.15771V2.52999H54.9312V3.55123V3.54591Z" fill="#103559"/>
</svg>
