<svg width="115" height="27" viewBox="0 0 115 27" fill="none" xmlns="http://www.w3.org/2000/svg">
<path d="M24.9886 3.21472C24.8505 1.85346 24.3036 1.5791 23.2416 1.5791H18.7175C17.7246 1.5791 17.4856 1.74794 17.1086 2.84011L13.7156 13.8726L10.3226 2.84011C9.94555 1.74794 9.7066 1.5791 8.71364 1.5791H4.18428C3.12229 1.5791 2.57537 1.85346 2.43731 3.21472L0.0372224 24.8735C-0.0636662 25.6543 0.00536284 25.9656 0.690344 26.0659L5.86752 26.8151C6.65339 26.9154 6.82862 26.7465 6.92951 26.1661L8.06052 16.02L10.4925 25.5224C10.7314 26.3033 11.0394 26.6146 11.8306 26.6146H15.6006C16.3865 26.6146 16.6998 26.3086 16.9387 25.5224L19.3388 16.02L20.5017 26.1661C20.6026 26.7465 20.7778 26.9154 21.5637 26.8151L26.7409 26.0659C27.4258 25.9656 27.4949 25.6596 27.394 24.8735L24.9886 3.21472Z" fill="#103559"/>
<path d="M37.4542 7.36865C31.644 7.36865 28.4863 11.351 28.4863 16.8423C28.4863 22.3337 31.644 26.316 37.4542 26.316C43.2643 26.316 46.422 22.3337 46.422 16.8423C46.422 11.351 43.2643 7.36865 37.4542 7.36865ZM37.4542 20.1195C36.0595 20.1195 35.3122 18.8128 35.3122 16.8372C35.3122 14.8615 36.0595 13.5548 37.4542 13.5548C38.8488 13.5548 39.5961 14.8615 39.5961 16.8372C39.5961 18.8128 38.8488 20.1195 37.4542 20.1195Z" fill="#103559"/>
<path d="M59.4518 7.37917C58.2608 7.37917 49.349 7.61581 48.7693 8.43092C48.5321 8.70438 48.5321 9.07775 48.5321 9.71933L48.8062 24.5175C48.8378 25.8743 49.1487 26.316 50.3345 26.316H54.4874C55.6784 26.316 56.0157 25.8743 56.0157 24.5175V14.2997C56.5269 14.1314 56.6956 14.0631 57.2753 14.0263C58.0553 13.9947 58.4294 14.2314 58.6719 14.8729C58.8405 15.5513 58.8774 16.5715 58.8774 17.9598L58.8458 24.5123C58.8458 25.869 59.22 26.3108 60.411 26.3108H64.664C65.8551 26.3108 66.1607 25.869 66.1924 24.5123L66.4664 15.4829C66.498 13.2743 66.0237 11.2391 64.9012 9.74562C63.7101 8.25213 61.9394 7.36865 59.4571 7.36865L59.4518 7.37917Z" fill="#103559"/>
<path d="M75.414 9.47363H71.1391C69.9695 9.47363 69.6331 9.877 69.6331 11.2338V24.5241C69.6331 25.8757 69.9695 26.3157 71.1391 26.3157H75.4813C76.6509 26.3157 77.0184 25.8757 77.0184 24.5241L76.9511 11.2338C76.9511 9.91367 76.5836 9.47363 75.414 9.47363Z" fill="#103559"/>
<path d="M73.5895 0.526367C71.0576 0.526367 69.6331 2.08547 69.6331 4.21058C69.6331 6.33569 71.0576 7.89479 73.5895 7.89479C76.1214 7.89479 77.5459 6.33569 77.5459 4.21058C77.5459 2.08547 76.1214 0.526367 73.5895 0.526367Z" fill="#103559"/>
<path d="M91.947 7.91984H89.3174V3.34421C89.3174 1.98886 88.9693 1.5791 87.7643 1.5791H83.6833C82.473 1.5791 82.0927 2.02038 82.0927 3.34421V7.91984H80.0201C78.8794 7.91984 78.6009 8.12472 78.6009 9.17538V12.8737C78.6009 13.9244 78.8794 14.1293 80.0201 14.1293H82.0927V20.5698C82.0927 24.909 84.4063 26.8423 88.7657 26.8423C90.0457 26.8423 91.3257 26.7424 92.5361 26.5008C93.0555 26.401 93.1948 26.2644 93.1948 25.7548L93.0234 20.5646C93.0234 20.1233 92.7824 19.9552 92.3326 20.055C91.9523 20.1548 91.5721 20.2231 91.0526 20.2231C90.0511 20.2231 89.3227 19.8816 89.3227 18.4265V14.1187H91.9523C93.093 14.1187 93.3715 13.9139 93.3715 12.8632V9.16488C93.3715 8.11422 93.093 7.90934 91.9523 7.90934L91.947 7.91984Z" fill="#103559"/>
<path d="M103.395 7.36865C97.5843 7.36865 94.4266 11.351 94.4266 16.8423C94.4266 22.3337 97.5843 26.316 103.395 26.316C109.205 26.316 112.362 22.3337 112.362 16.8423C112.362 11.351 109.205 7.36865 103.395 7.36865ZM103.395 20.1195C102 20.1195 101.253 18.8128 101.253 16.8372C101.253 14.8615 102 13.5548 103.395 13.5548C104.789 13.5548 105.537 14.8615 105.537 16.8372C105.537 18.8128 104.789 20.1195 103.395 20.1195Z" fill="#103559"/>
<path d="M114.03 8.11025C113.421 7.67049 112.422 7.92457 111.792 8.67704C111.161 9.4295 111.145 10.397 111.75 10.8367C112.359 11.2765 113.358 11.0224 113.988 10.2699C114.619 9.51745 114.634 8.55 114.03 8.11025Z" fill="#103559"/>
<path d="M99.6851 6.831C100.402 6.72097 100.871 5.81455 100.733 4.80334C100.594 3.79213 99.9075 3.05861 99.191 3.16864C98.4745 3.27867 98.0051 4.18509 98.1434 5.1963C98.2818 6.20751 98.9686 6.94103 99.6851 6.831Z" fill="#103559"/>
<path d="M108.969 7.76108C109.96 8.26147 111.461 7.31509 112.315 5.64531C113.169 3.97554 113.06 2.2133 112.063 1.71291C111.072 1.21252 109.571 2.15891 108.717 3.82868C107.863 5.49846 107.972 7.2607 108.969 7.76108Z" fill="#103559"/>
<path d="M103.837 6.30726C104.836 6.4344 105.805 5.12591 105.998 3.38834C106.191 1.64546 105.538 0.135674 104.534 0.0085342C103.535 -0.118606 102.566 1.18988 102.373 2.92745C102.18 4.67033 102.833 6.18012 103.837 6.30726Z" fill="#103559"/>
</svg>
