<svg width="55" height="8" viewBox="0 0 55 8" fill="none" xmlns="http://www.w3.org/2000/svg">
<path d="M2.569 0.631592C3.21115 0.631592 3.74276 0.849055 4.16911 1.27868C4.60598 1.7083 4.81652 2.244 4.81652 2.88047C4.81652 3.51695 4.60598 4.04204 4.16911 4.48226C3.74276 4.91189 3.21115 5.12935 2.569 5.12935H1.18469V7.4737H0.0688171V0.636897H2.569V0.631592ZM2.569 4.06856C3.22694 4.06856 3.70065 3.56998 3.70065 2.87517C3.70065 2.18035 3.22694 1.68178 2.569 1.68178H1.18469V4.06325H2.569V4.06856Z" fill="#103559"/>
<path d="M6.49593 5.51632C6.6573 6.2014 7.2861 6.57819 8.13748 6.57819C8.72176 6.57819 9.16136 6.38735 9.46185 6.02034L10.3744 6.49011C9.87363 7.14583 9.12241 7.47369 8.13191 7.47369C7.30279 7.47369 6.62391 7.24859 6.11197 6.80818C5.60003 6.35799 5.34406 5.79035 5.34406 5.10527C5.34406 4.42019 5.60003 3.87212 6.10084 3.42193C6.60165 2.96195 7.25827 2.73685 8.04844 2.73685C8.7941 2.73685 9.41177 2.97173 9.89033 3.43171C10.3744 3.8917 10.6193 4.45934 10.6193 5.11506C10.6193 5.21292 10.6082 5.34994 10.5803 5.52121H6.50149L6.49593 5.51632ZM9.5008 4.72358C9.34499 3.99446 8.76071 3.61277 8.03732 3.61277C7.21932 3.61277 6.64617 4.0385 6.49036 4.72358H9.5008Z" fill="#103559"/>
<path d="M13.7844 3.54609H12.5736V5.89705C12.5736 6.52468 12.9825 6.51404 13.7844 6.47681V7.42889C12.17 7.62569 11.5168 7.18423 11.5168 5.90237V3.55141H10.6193V2.53018H11.5168V1.47171L12.5736 1.1579V2.53018H13.7844V3.55141V3.54609Z" fill="#103559"/>
<path d="M16.3867 4.68155C17.1 4.8334 18.0244 5.12241 18.0043 6.08741C18.0043 6.51848 17.8285 6.86138 17.4869 7.1063C17.1453 7.35123 16.7182 7.47369 16.2008 7.47369C15.2865 7.47369 14.6083 7.07691 14.312 6.42051L15.171 5.93556C15.3267 6.36663 15.6683 6.58706 16.1958 6.58706C16.7233 6.58706 16.9845 6.41561 16.9845 6.08252C16.9845 5.7935 16.5977 5.62206 16.1054 5.5045C15.4121 5.33305 14.4777 5.06363 14.4978 4.11332C14.4978 3.69695 14.6536 3.36385 14.9801 3.11403C15.3016 2.85931 15.7135 2.73685 16.1908 2.73685C16.9594 2.73685 17.5773 3.08954 17.9038 3.67736L17.0599 4.13782C16.9041 3.79492 16.6077 3.62347 16.1908 3.62347C15.814 3.62347 15.5176 3.78512 15.5176 4.10353C15.5176 4.40234 15.9044 4.55419 16.3867 4.69134V4.68155Z" fill="#103559"/>
<path d="M24.3349 1.63768C23.5037 1.57 23.0996 1.88757 23.0996 2.58519V2.6789H24.3349V3.67846H23.0996V7.4737H21.9667V3.67846H21.1697V2.6789H21.9667V2.58519C21.9667 1.27325 22.7865 0.554815 24.3349 0.638112V1.63768Z" fill="#103559"/>
<path d="M25.6331 6.78861C25.1229 6.32863 24.8624 5.77077 24.8624 5.10527C24.8624 4.43976 25.1229 3.88191 25.6331 3.42193C26.1432 2.96195 26.7728 2.73685 27.5 2.73685C28.2273 2.73685 28.8568 2.96195 29.367 3.42193C29.8771 3.88191 30.1376 4.43976 30.1376 5.10527C30.1376 5.77077 29.8771 6.32863 29.367 6.78861C28.8568 7.24859 28.2381 7.47369 27.5 7.47369C26.7619 7.47369 26.1432 7.24859 25.6331 6.78861ZM27.5 6.52926C27.9396 6.52926 28.3087 6.39224 28.6072 6.1231C28.9057 5.85396 29.0576 5.51142 29.0576 5.10527C29.0576 4.69911 28.9057 4.35657 28.6072 4.08743C28.3087 3.81829 27.9396 3.68128 27.5 3.68128C27.0604 3.68128 26.6914 3.81829 26.3929 4.08743C26.0944 4.35657 25.9424 4.69911 25.9424 5.10527C25.9424 5.51142 26.0944 5.85396 26.3929 6.1231C26.6914 6.39224 27.0604 6.52926 27.5 6.52926Z" fill="#103559"/>
<path d="M31.7519 3.60131C32.0249 3.025 32.5492 2.73685 33.3028 2.73685V3.82374C32.8932 3.79341 32.5273 3.88946 32.2161 4.10178C31.9048 4.30905 31.7519 4.65282 31.7519 5.12802V7.47369H30.6652V2.81773H31.7519V3.60131Z" fill="#103559"/>
<path d="M41.2156 5.52033C41.2156 6.07767 41.0285 6.54478 40.6493 6.91635C40.2701 7.28791 39.81 7.4737 39.2639 7.4737H36.4679V0.631592H39.0566C39.5875 0.631592 40.0426 0.817376 40.4066 1.17832C40.7808 1.53927 40.9628 1.99046 40.9628 2.52658C40.9628 3.12108 40.7403 3.58288 40.3004 3.9226C40.8667 4.23577 41.2105 4.80374 41.2105 5.51502L41.2156 5.52033ZM37.5398 1.6879V3.48733H39.0566C39.5319 3.48733 39.896 3.09454 39.896 2.59027C39.896 2.086 39.5319 1.69321 39.0566 1.69321H37.5398V1.6879ZM39.2639 6.41739C39.7594 6.41739 40.1488 5.99805 40.1488 5.46194C40.1488 4.92582 39.7594 4.50648 39.2639 4.50648H37.5398V6.4227H39.2639V6.41739Z" fill="#103559"/>
<path d="M43.4213 5.51632C43.5825 6.2014 44.2107 6.57819 45.0611 6.57819C45.6448 6.57819 46.0839 6.38735 46.3841 6.02034L47.2957 6.49011C46.7955 7.14583 46.045 7.47369 45.0556 7.47369C44.2273 7.47369 43.5492 7.24859 43.0378 6.80818C42.5264 6.35799 42.2707 5.79035 42.2707 5.10527C42.2707 4.42019 42.5264 3.87212 43.0266 3.42193C43.5269 2.96195 44.1829 2.73685 44.9722 2.73685C45.7171 2.73685 46.3341 2.97173 46.8177 3.43171C47.3013 3.8917 47.5459 4.45934 47.5459 5.11506C47.5459 5.21292 47.5348 5.34994 47.507 5.52121H43.4324L43.4213 5.51632ZM46.423 4.72358C46.2674 3.99446 45.6837 3.61277 44.9611 3.61277C44.144 3.61277 43.5714 4.0385 43.4158 4.72358H46.4286H46.423Z" fill="#103559"/>
<path d="M49.6206 4.68155C50.334 4.8334 51.2583 5.12241 51.2382 6.08741C51.2382 6.51848 51.0624 6.86138 50.7208 7.1063C50.3792 7.35123 49.9522 7.47369 49.4347 7.47369C48.5204 7.47369 47.8423 7.07691 47.5459 6.42051L48.4049 5.93556C48.5606 6.36663 48.9022 6.58706 49.4297 6.58706C49.9572 6.58706 50.2184 6.41561 50.2184 6.08252C50.2184 5.7935 49.8316 5.62206 49.3393 5.5045C48.646 5.33305 47.7116 5.06363 47.7317 4.11332C47.7317 3.69695 47.8875 3.36385 48.214 3.11403C48.5355 2.85931 48.9474 2.73685 49.4247 2.73685C50.1933 2.73685 50.8112 3.08954 51.1377 3.67736L50.2938 4.13782C50.138 3.79492 49.8416 3.62347 49.4247 3.62347C49.0479 3.62347 48.7515 3.78512 48.7515 4.10353C48.7515 4.40234 49.1383 4.55419 49.6206 4.69134V4.68155Z" fill="#103559"/>
<path d="M54.9312 3.54609H53.7224V5.89705C53.7224 6.52468 54.1306 6.51404 54.9312 6.47681V7.42889C53.3195 7.62569 52.6673 7.18423 52.6673 5.90237V3.55141H51.7661V2.53018H52.6673V1.47171L53.7224 1.1579V2.53018H54.9312V3.55141V3.54609Z" fill="#103559"/>
</svg>
